#!OML:ASF E:\inclinewalkrobotboard\Project 1\Capture day 1\Session 1\subject1.ASF
:FULLY-SPECIFIED
:DEGREES
227
root 8.18308 16.7631 11.3744 -172.113 -0.879566 -174.504
lowerback 5.923 1.99927 -8.80927
upperback 4.78369 1.92426 1.02374
thorax 1.33083 0.576886 5.91804
lowerneck -9.21842 1.0367 -2.32903
upperneck 26.6725 -2.63878 8.77078
head 10.119 -1.25667 3.07331
rclavicle 1.27222e-014 7.15625e-015
rhumerus -40.7168 -7.8681 -74.8208
rradius 44.2949
rwrist 6.83287
rhand -11.5436 -34.2409
rfingers 7.12502
rthumb 14.4968 -63.7144
lclavicle 1.27222e-014 7.15625e-015
lhumerus -35.3283 30.5603 55.7063
lradius 10.7786
lwrist -49.2178
lhand -33.6023 -19.044
lfingers 7.12502
lthumb -6.79564 10.827
rfemur -52.0531 9.8759 13.8833
rtibia 38.9526
rfoot 350.108 352.119
rtoes -27.6632
lfemur -17.7607 -4.25078 -18.9428
ltibia 24.4824
lfoot -15.7027 -6.64742
ltoes -50.9879
228
root 8.18169 16.7548 11.3745 -172.103 -0.529368 -174.343
lowerback 5.87235 2.12974 -8.61337
upperback 4.74018 2.1161 1.09032
thorax 1.28389 0.683289 5.86659
lowerneck -8.82754 1.05352 -2.4009
upperneck 26.4849 -2.57875 8.7528
head 9.9693 -1.25062 3.08043
rclavicle -2.0276e-014 -2.62396e-014
rhumerus -40.9362 -8.13421 -74.7276
rradius 44.3737
rwrist 7.11742
rhand -11.6627 -34.2237
rfingers 7.12502
rthumb 14.382 -63.7055
lclavicle -2.0276e-014 -2.62396e-014
lhumerus -36.2875 30.3945 55.3573
lradius 10.912
lwrist -48.5332
lhand -33.3837 -19.2057
lfingers 7.12502
lthumb -6.58461 10.6719
rfemur -52.0251 9.86352 14.2757
rtibia 39.0526
rfoot 350.339 352.521
rtoes -27.836
lfemur -17.6297 -4.75336 -18.8653
ltibia 24.3065
lfoot -15.9524 -6.26597
ltoes -49.2306
229
root 8.17705 16.7425 11.3728 -172.121 -0.215138 -174.233
lowerback 5.81449 1.75802 -8.49554
upperback 4.69516 2.34732 1.17014
thorax 1.27529 1.10873 5.88166
lowerneck -8.51836 1.11056 -2.45675
upperneck 26.4704 -2.47631 8.64795
head 9.89475 -1.23406 3.06167
rclavicle 2.38542e-015 -2.70347e-014
rhumerus -41.1093 -8.31744 -74.5455
rradius 44.3934
rwrist 7.14134
rhand -11.4475 -34.4114
rfingers 7.12502
rthumb 14.5894 -63.8782
lclavicle 2.38542e-015 -2.70347e-014
lhumerus -36.8556 28.6769 56.2611
lradius 11.3977
lwrist -45.8719
lhand -33.0876 -19.1941
lfingers 7.12502
lthumb -6.2988 10.6922
rfemur -51.9975 9.81087 14.6041
rtibia 39.1544
rfoot 350.478 352.699
rtoes -29.0546
lfemur -17.4719 -5.13277 -18.8729
ltibia 24.1689
lfoot -16.1364 -6.03456
ltoes -47.5892
230
root 8.17448 16.728 11.3733 -172.119 0.0419709 -174.175
lowerback 5.72528 1.81522 -8.39144
upperback 4.67713 2.42805 1.28633
thorax 1.29034 1.14732 5.94279
lowerneck -8.45951 1.15788 -2.52927
upperneck 26.5636 -2.40698 8.59908
head 9.9113 -1.22006 3.06557
rclavicle -9.93923e-015 -3.65764e-014
rhumerus -41.0878 -8.49708 -74.3693
rradius 44.261
rwrist 7.04671
rhand -11.3478 -34.4075
rfingers 7.12502
rthumb 14.6854 -63.8674
lclavicle -9.93923e-015 -3.65764e-014
lhumerus -37.3108 26.7862 57.3972
lradius 11.875
lwrist -43.0854
lhand -32.7683 -18.3075
lfingers 7.12502
lthumb -5.99052 11.5878
rfemur -52.0322 9.87885 14.74
rtibia 39.2046
rfoot 350.337 352.565
rtoes -30.3245
lfemur -17.4617 -5.46594 -18.8908
ltibia 24.2524
lfoot -16.3296 -5.92104
ltoes -46.1283
231
root 8.17259 16.7133 11.3723 -172.115 0.346273 -174.268
lowerback 5.58089 1.88221 -8.42806
upperback 4.71309 2.52946 1.35765
thorax 1.38799 1.19047 6.03872
lowerneck -8.66587 1.21276 -2.58619
upperneck 26.8068 -2.33759 8.54117
head 10.0343 -1.19644 3.06815
rclavicle 3.97569e-015 3.26007e-014
rhumerus -40.9588 -8.70807 -74.1995
rradius 44.0438
rwrist 6.9697
rhand -11.4598 -34.2846
rfingers 7.12502
rthumb 14.5775 -63.7523
lclavicle 3.97569e-015 3.26007e-014
lhumerus -37.6967 26.1156 57.9653
lradius 12.0318
lwrist -41.9065
lhand -32.2816 -16.5727
lfingers 7.12502
lthumb -5.52066 13.3354
rfemur -52.1247 10.1414 14.5374
rtibia 39.1819
rfoot 349.98 352.403
rtoes -30.0818
lfemur -17.5213 -5.85683 -19.0754
ltibia 24.4989
lfoot -16.5556 -5.74657
ltoes -44.573
232
root 8.16937 16.699 11.3727 -172.172 0.590715 -174.392
lowerback 5.51305 1.94297 -8.42118
upperback 4.77931 2.62411 1.42057
thorax 1.47753 1.23306 6.09999
lowerneck -9.05911 1.26827 -2.45972
upperneck 27.2449 -2.25395 8.22806
head 10.2628 -1.17005 2.95381
rclavicle 9.54166e-015 3.18055e-015
rhumerus -40.8095 -9.01942 -73.993
rradius 43.7615
rwrist 6.94021
rhand -11.4408 -34.2184
rfingers 7.12502
rthumb 14.5958 -63.6848
lclavicle 9.54166e-015 3.18055e-015
lhumerus -37.9659 25.8794 58.4348
lradius 12.2159
lwrist -41.4163
lhand -31.8955 -16.3666
lfingers 7.12502
lthumb -5.14783 13.5509
rfemur -52.185 10.436 14.2376
rtibia 39.1437
rfoot 349.714 352.238
rtoes -29.6918
lfemur -17.5734 -6.23288 -19.3145
ltibia 24.8292
lfoot -16.7486 -5.60985
ltoes -42.9193
233
root 8.16518 16.684 11.3788 -172.228 0.729507 -174.3
lowerback 5.54706 1.9815 -8.15733
upperback 4.80068 2.68387 1.55419
thorax 1.47282 1.26811 6.08714
lowerneck -9.33952 1.31132 -2.34827
upperneck 27.5491 -2.18639 7.99044
head 10.4236 -1.14736 2.86385
rclavicle -1.51076e-014 -1.51076e-014
rhumerus -40.7711 -9.39501 -73.7635
rradius 43.5
rwrist 7.01497
rhand -11.3278 -34.0106
rfingers 7.12502
rthumb 14.7047 -63.4691
lclavicle -1.51076e-014 -1.51076e-014
lhumerus -38.1889 25.1575 59.2569
lradius 12.6116
lwrist -40.4473
lhand -31.8027 -16.8277
lfingers 7.12502
lthumb -5.05821 13.0919
rfemur -52.2405 10.6708 14.1964
rtibia 39.0796
rfoot 349.642 352.115
rtoes -29.4706
lfemur -17.708 -6.54517 -19.2917
ltibia 25.2049
lfoot -17.0682 -4.99848
ltoes -43.9564
234
root 8.15654 16.6678 11.3816 -172.323 0.818923 -174.211
lowerback 5.60108 1.99733 -7.85814
upperback 4.79509 2.71011 1.70879
thorax 1.43446 1.28847 6.07661
lowerneck -9.35279 1.35635 -2.40019
upperneck 27.6418 -2.11769 7.95281
head 10.4554 -1.12728 2.86891
rclavicle 1.66979e-014 1.19271e-014
rhumerus -40.8985 -9.71305 -73.4876
rradius 43.3751
rwrist 7.21194
rhand -11.1351 -33.9186
rfingers 7.12502
rthumb 14.8904 -63.3634
lclavicle 1.66979e-014 1.19271e-014
lhumerus -38.3728 24.6503 59.9947
lradius 12.8495
lwrist -39.8031
lhand -31.8238 -16.3953
lfingers 7.12502
lthumb -5.07859 13.5238
rfemur -52.1969 10.7766 14.1818
rtibia 38.9265
rfoot 349.611 352.226
rtoes -28.8911
lfemur -17.7609 -6.97933 -19.3292
ltibia 25.5308
lfoot -17.3024 -4.58353
ltoes -44.0066
235
root 8.14182 16.6487 11.38 -172.428 0.884763 -174.168
lowerback 5.59545 1.98827 -7.52233
upperback 4.73012 2.70044 1.85113
thorax 1.37427 1.29141 6.03483
lowerneck -9.1273 1.43704 -2.37688
upperneck 27.8266 -2.02303 7.77929
head 10.4709 -1.11978 2.81341
rclavicle 2.5842e-015 -2.62396e-014
rhumerus -41.1946 -9.72614 -73.2004
rradius 43.372
rwrist 7.23622
rhand -10.827 -34.147
rfingers 7.12502
rthumb 15.1871 -63.5696
lclavicle 2.5842e-015 -2.62396e-014
lhumerus -38.6094 24.4521 60.4915
lradius 12.9245
lwrist -39.6529
lhand -31.9307 -16.0137
lfingers 7.12502
lthumb -5.18184 13.903
rfemur -52.1385 10.8312 14.0819
rtibia 38.7569
rfoot 349.555 352.51
rtoes -28.0532
lfemur -17.8031 -7.59404 -19.468
ltibia 25.9198
lfoot -17.5748 -4.22469
ltoes -43.5062
236
root 8.1268 16.6287 11.3789 -172.506 1.05515 -174.113
lowerback 5.52033 2.00258 -7.19908
upperback 4.64088 2.72267 1.98369
thorax 1.32248 1.30875 5.98975
lowerneck -8.80273 1.53299 -2.28564
upperneck 28.0749 -1.9489 7.58936
head 10.4919 -1.12692 2.73701
rclavicle 9.34288e-015 7.95139e-016
rhumerus -41.5198 -9.51796 -72.9916
rradius 43.3699
rwrist 7.01953
rhand -10.6391 -34.2384
rfingers 7.12502
rthumb 15.3681 -63.6473
lclavicle 9.34288e-015 7.95139e-016
lhumerus -38.8955 24.4131 60.8836
lradius 13.0594
lwrist -39.5183
lhand -31.9707 -15.9381
lfingers 7.12502
lthumb -5.22046 13.9776
rfemur -52.1857 10.9939 13.9861
rtibia 38.6585
rfoot 349.501 352.783
rtoes -27.5709
lfemur -17.9162 -8.06174 -19.5645
ltibia 26.4186
lfoot -17.9419 -3.87758
ltoes -43.2236
237
root 8.11744 16.6128 11.3785 -172.617 1.31568 -174.091
lowerback 5.45764 2.08081 -7.01479
upperback 4.64728 2.83823 2.10906
thorax 1.34637 1.36854 6.01297
lowerneck -8.69277 1.54729 -2.29346
upperneck 28.2468 -1.98343 7.57233
head 10.536 -1.16096 2.72916
rclavicle -4.57205e-015 6.75868e-015
rhumerus -41.6681 -9.54066 -72.8359
rradius 43.2506
rwrist 6.93541
rhand -10.6055 -34.1683
rfingers 7.12502
rthumb 15.4005 -63.5747
lclavicle -4.57205e-015 6.75868e-015
lhumerus -38.9964 24.4697 61.3542
lradius 13.2736
lwrist -39.2219
lhand -31.937 -15.8396
lfingers 7.12502
lthumb -5.18793 14.0769
rfemur -52.2022 11.2163 13.9489
rtibia 38.5928
rfoot 349.423 352.908
rtoes -27.8273
lfemur -17.974 -8.15479 -19.6358
ltibia 26.8639
lfoot -18.2372 -3.82373
ltoes -42.8706
238
root 8.1139 16.6008 11.3802 -172.703 1.53049 -174.131
lowerback 5.41287 2.1534 -6.94846
upperback 4.65044 2.94043 2.20625
thorax 1.35642 1.41981 6.07366
lowerneck -8.59293 1.5357 -2.3088
upperneck 28.3419 -2.05125 7.6106
head 10.5563 -1.20153 2.73793
rclavicle 0 9.54166e-015
rhumerus -41.6993 -9.70553 -72.7248
rradius 42.9455
rwrist 7.16617
rhand -10.7189 -34.1688
rfingers 7.12502
rthumb 15.2913 -63.5835
lclavicle 0 9.54166e-015
lhumerus -38.8956 23.59 62.4089
lradius 13.6882
lwrist -37.7599
lhand -32.0877 -15.7024
lfingers 7.12502
lthumb -5.3334 14.2105
rfemur -52.2371 11.3712 13.8938
rtibia 38.5547
rfoot 349.341 352.913
rtoes -27.4351
lfemur -18.0554 -7.98229 -19.7026
ltibia 27.2167
lfoot -18.4029 -3.99774
ltoes -42.5621
239
root 8.11295 16.5929 11.3822 -172.838 1.64767 -174.283
lowerback 5.44254 2.17127 -6.95935
upperback 4.63185 2.95963 2.2326
thorax 1.31571 1.43042 6.10466
lowerneck -8.3794 1.57181 -2.35299
upperneck 28.4643 -2.09925 7.74253
head 10.5636 -1.23641 2.78686
rclavicle 8.94531e-015 2.74323e-014
rhumerus -41.6339 -9.90205 -72.6806
rradius 42.4246
rwrist 7.57596
rhand -11.0592 -34.2138
rfingers 7.12502
rthumb 14.9634 -63.6532
lclavicle 8.94531e-015 2.74323e-014
lhumerus -38.7127 22.2294 63.6368
lradius 14.1442
lwrist -35.8323
lhand -32.2655 -15.6183
lfingers 7.12502
lthumb -5.50506 14.2902
rfemur -52.1706 11.357 13.7751
rtibia 38.4724
rfoot 349.324 352.891
rtoes -26.6493
lfemur -18.1001 -7.67324 -19.8814
ltibia 27.5687
lfoot -18.526 -4.17297
ltoes -42.8886
240
root 8.11209 16.5878 11.3838 -173.031 1.67082 -174.378
lowerback 5.52731 2.13674 -6.87391
upperback 4.65603 2.91618 2.25775
thorax 1.3027 1.41218 6.08239
lowerneck -8.19812 1.63081 -2.47582
upperneck 28.6307 -2.12897 7.93858
head 10.5931 -1.26574 2.87592
rclavicle 1.86858e-014 1.98785e-014
rhumerus -41.498 -10.0998 -72.6756
rradius 41.8567
rwrist 8.02052
rhand -11.3186 -34.1572
rfingers 7.12502
rthumb 14.7136 -63.6151
lclavicle 1.86858e-014 1.98785e-014
lhumerus -38.4766 21.6763 64.353
lradius 14.3278
lwrist -34.9338
lhand -32.5585 -17.3253
lfingers 7.12502
lthumb -5.78793 12.5757
rfemur -51.9466 11.2157 13.7948
rtibia 38.3478
rfoot 349.314 352.802
rtoes -26.608
lfemur -18.0254 -7.37673 -20.0053
ltibia 27.8156
lfoot -18.5651 -4.37433
ltoes -43.2389
